<svg width="193" height="188" viewBox="0 0 193 188" fill="none" xmlns="http://www.w3.org/2000/svg">
<g clip-path="url(#clip0_5_175)">
<mask id="mask0_5_175" style="mask-type:luminance" maskUnits="userSpaceOnUse" x="0" y="0" width="193" height="188">
<path d="M0.859055 93.725C0.859055 42.1573 43.7747 0.353424 96.714 0.353424C149.653 0.353424 192.569 42.1573 192.569 93.725C192.569 145.293 149.653 187.097 96.714 187.097C43.7747 187.097 0.859055 145.293 0.859055 93.725Z" fill="white"/>
</mask>
<g mask="url(#mask0_5_175)">
<path d="M0.859055 93.725C0.859055 42.1573 43.7747 0.353424 96.714 0.353424C149.653 0.353424 192.569 42.1573 192.569 93.725C192.569 145.293 149.653 187.097 96.714 187.097C43.7747 187.097 0.859055 145.293 0.859055 93.725Z" fill="black"/>
<path d="M-121.384 253.423L-90.5353 268.756L-56.3116 287.011L-47.8987 291.502C-36.5523 297.563 -22.2432 294.728 -14.3003 284.848L-1.60864 269.068L22.8087 238.693C22.8087 238.693 18.5058 281.27 27.1503 325.054C73.6903 339.028 111.381 337.687 148.818 330.566C157.228 328.978 165.588 327.049 174.074 324.969C190.837 306.495 185.623 198.8 185.623 198.8L199.014 204.635L202.889 206.33L262.145 232.306L240.365 294.399L305.153 314.006L331.028 226.124L331.813 223.484C336.198 208.595 328.724 192.863 314.137 186.254L295.918 177.931L209.708 138.549C191.022 130.024 170.07 127.106 149.594 130.189L148.16 130.383L49.3607 145.277L29.5155 148.246C13.1752 149.802 -1.46194 158.559 -10.0418 171.95L-47.7829 230.809C-47.7829 230.809 -79.7003 212.226 -105.607 196.234C-102.236 243.008 -121.384 253.423 -121.384 253.423Z" fill="#A5DEF7"/>
<path d="M149.223 333.24C157.506 331.615 165.739 329.642 174.096 327.517C190.577 308.729 185.234 199.367 185.234 199.367L198.44 205.273C194.947 193.689 188.577 179.951 178.166 192.504C175.072 196.257 174.192 201.333 173.98 206.16C173.626 214.831 175.058 223.49 175.163 232.205C175.258 240.883 173.846 250.024 168.525 256.952C165.395 261.036 161.018 264.234 158.644 268.728C154.361 276.835 157.406 286.848 155.19 295.713C153.245 303.425 147.376 309.81 145.9 317.604C144.869 323.039 146.246 328.664 149.223 333.24Z" fill="#4598E0"/>
<path d="M116.892 87.7903C116.892 87.7903 154.102 82.7449 168.24 110.06C175.006 111.915 182.524 118.163 184.735 131.786C187.996 151.703 52.716 155.782 52.716 155.782C52.716 155.782 34.076 106.368 116.892 87.7903Z" fill="#A5DEF7"/>
<path d="M124.97 93.8937C124.97 93.8937 146.63 94.0009 146.567 109.634C146.536 120.408 136.165 128.623 124.66 133.959C109.271 141.153 73.2445 143.69 69.9172 140.639C63.9428 135.238 61.6674 124.791 73.4211 115.567C99.2417 95.4119 124.97 93.8937 124.97 93.8937Z" fill="#1A1B16"/>
<path d="M27.1831 176.826C27.1831 176.826 22.7508 196.891 23.0818 237.007" stroke="#1A1B16" stroke-width="3.32807" stroke-miterlimit="10" stroke-linecap="round" stroke-linejoin="round"/>
<path d="M69.6064 140.471C70.886 130.284 72.0373 121.177 72.0373 121.177L69.6064 140.471Z" fill="#0F70D1"/>
<path d="M93.3319 153.762C93.1592 159.325 97.1729 164.402 102.236 167.074C107.289 169.708 113.238 170.291 118.982 170.251C124.736 170.248 130.515 169.722 136.223 170.326C146.346 171.459 155.92 176.422 162.543 183.907" stroke="white" stroke-width="2.66246" stroke-miterlimit="10" stroke-linecap="round" stroke-linejoin="round"/>
<path d="M168.393 191.046C168.784 190.667 168.781 190.028 168.357 189.655L165.157 186.625C164.771 186.242 164.12 186.247 163.739 186.663C163.348 187.042 163.352 187.681 163.775 188.055L166.975 191.085C167.399 191.457 168.003 191.424 168.393 191.046Z" fill="white"/>
<path d="M84.2368 156.089C84.4491 168.572 94.0865 178.771 103.969 186.457C113.852 194.142 125.093 201.12 130.926 212.128" stroke="white" stroke-width="2.66246" stroke-miterlimit="10" stroke-linecap="round" stroke-linejoin="round"/>
<path d="M183.817 128.866C183.817 128.866 171.312 126.642 166.561 129.03C163.211 135.943 150.281 147.337 137.959 150.044C125.636 152.752 120.369 158.358 120.369 158.358" stroke="#1A1B16" stroke-width="3.32807" stroke-miterlimit="10" stroke-linecap="round" stroke-linejoin="round"/>
<path d="M168.68 110.762L163.413 110.072" stroke="#1A1B16" stroke-width="3.32807" stroke-miterlimit="10" stroke-linecap="round" stroke-linejoin="round"/>
<path d="M50.1018 142.035C50.1018 142.035 50.8729 146.729 63.937 155.034" stroke="#1A1B16" stroke-width="3.32807" stroke-miterlimit="10" stroke-linecap="round" stroke-linejoin="round"/>
<path d="M133.069 84.5191C133.069 84.5191 149.456 33.3433 113.424 36.1524C102.436 23.5419 81.1063 21.738 71.2199 28.6621C64.7071 33.2177 64.9368 40.3994 66.0523 45.3648C66.0523 45.3648 52.9688 45.1507 55.5464 54.434C58.2281 64.0854 75.0094 75.3807 117.98 70.3954C113.821 83.5821 110.755 95.724 133.069 84.5191Z" fill="#1A1B16"/>
<path d="M65.4386 39.7073C65.4386 39.7073 65.2678 45.1518 72.3431 51.8689" stroke="#707070" stroke-width="2.66246" stroke-miterlimit="10" stroke-linecap="round" stroke-linejoin="round"/>
<path d="M112.763 34.5747C114.289 36.1108 115.871 37.9939 117.133 40.1322" stroke="#707070" stroke-width="2.66246" stroke-miterlimit="10" stroke-linecap="round" stroke-linejoin="round"/>
<path d="M123.051 62.371L118.863 65.9458" stroke="#707070" stroke-width="2.66246" stroke-miterlimit="10" stroke-linecap="round" stroke-linejoin="round"/>
<path d="M70.5521 140.643C74.6399 144.521 84.7183 145.176 93.5384 144.472C114.157 142.873 124.774 133.737 124.774 133.737L127.768 98.2309C128.075 98.1539 128.383 98.0758 128.69 97.9988C133.948 96.3566 136.242 90.9109 135.134 85.4443C134.916 84.3022 134.255 83.0323 133.488 81.8287C130.335 76.837 122.674 76.8104 120.225 82.1349C119.124 84.487 118.284 87.212 117.013 86.8935C115.521 86.511 115.726 83.7063 116.097 81.3786C116.719 77.6709 118.093 65.9139 118.093 65.9139C118.093 65.9139 98.8274 78.7433 68.8392 67.5791C68.8006 67.5888 68.791 67.5514 68.7524 67.561C67.468 76.383 65.621 89.456 64.3867 100.34C62.504 117.173 72.9019 121.538 72.9019 121.538L72.4059 125.573L70.5521 140.643Z" fill="#F8934F"/>
<path d="M122.1 90.5129C122.1 90.5129 124.725 93.1104 127.31 91.2056C129.895 89.3008 128.856 86.3117 128.856 86.3117C127.812 86.5695 126.816 86.8549 125.86 87.2889C124.305 87.95 122.906 89.0472 122.1 90.5129Z" fill="#F77C2D"/>
<path d="M72.734 121.068L72.2862 125.154L84.1528 123.896C84.1528 123.896 63.4912 120.227 66.4586 96.8012C68.7283 78.7859 68.6105 69.7602 68.4118 66.5399C68.3741 66.5501 68.3645 66.5123 68.3278 66.5226C67.1553 75.46 65.4733 88.7033 64.3645 99.7255C62.6768 116.772 72.734 121.068 72.734 121.068Z" fill="#F9AF79"/>
<path d="M105.145 143.32C118.128 139.827 124.739 134.057 124.739 134.057L127.471 98.9218C125.704 98.5693 123.046 99.2527 122.53 100.465C122.131 101.368 123.099 103.527 122.961 104.637C122.785 106.194 122.2 107.743 121.113 108.953C120.343 109.837 119.359 110.541 118.637 111.453C115.014 115.973 118.775 123.329 115.318 128.003C114.107 129.643 112.151 130.652 110.551 131.921C107.109 134.605 105.072 138.971 105.145 143.32Z" fill="#F77C2D"/>
<path d="M128.824 86.3148C128.824 86.3148 129.894 89.2319 127.33 91.1338C124.766 93.0358 122.116 90.5233 122.116 90.5233C122.868 89.0854 124.254 87.991 125.791 87.286C127.328 86.581 128.996 86.1928 130.695 85.9135" stroke="#BF3028" stroke-width="2.66246" stroke-miterlimit="10" stroke-linecap="round" stroke-linejoin="round"/>
<path d="M127.89 98.8325C127.89 98.8325 125.741 99.468 122.973 98.8993" stroke="#BF3028" stroke-width="2.66246" stroke-miterlimit="10" stroke-linecap="round" stroke-linejoin="round"/>
<path d="M88.1663 123.998C88.1663 123.998 79.6057 125.324 72.2003 121.496C71.7815 124.713 71.1176 130.285 71.1176 130.285C71.1176 130.285 85.3996 126.219 88.1663 123.998Z" fill="#BF3028"/>
<path d="M75.2063 68.9851C80.9963 71.7949 87.3219 73.4973 93.7941 73.8718C102.077 74.3627 110.507 72.742 117.944 69.2426C118.129 69.1592 118.353 69.0666 118.577 68.974C118.85 67.0282 119.026 65.6541 119.026 65.6541C119.026 65.6541 102.028 76.5293 75.2063 68.9851Z" fill="#F77C2D"/>
<path d="M79.8721 95.2784C79.8721 95.2784 83.3441 96.8247 84.1277 94.3356C84.9036 91.9661 81.7625 90.1352 79.5488 90.8855C77.3341 91.6358 77.062 92.5732 77.062 92.5732L79.8721 95.2784Z" fill="#F77C2D"/>
<path d="M80.6605 95.4269L79.0769 94.4644C77.9672 93.7711 77.4856 92.42 77.916 91.1748L81.3456 80.857" stroke="#BF3028" stroke-width="2.66246" stroke-miterlimit="10" stroke-linecap="round" stroke-linejoin="round"/>
<path d="M86.3405 111.875C86.7574 112.776 88.2705 113.006 89.7257 112.438C91.1809 111.869 92.0755 110.63 91.6962 109.72C91.2784 108.819 90.0007 109.575 88.5069 110.153C87.0131 110.732 85.9226 110.975 86.3405 111.875Z" fill="#F77C2D"/>
<path d="M78.9959 103.383C79.1493 100.531 82.3299 100.414 84.4008 100.309C85.1719 100.267 85.9912 100.25 86.5663 100.102C87.2177 99.9342 88.0456 99.5253 88.7974 99.1362C90.5199 98.262 92.6699 97.1612 94.3587 98.5618C95.3845 99.3909 95.7357 100.589 95.2986 101.913C94.488 104.348 90.9426 107.021 87.7687 107.722C87.4618 107.802 87.1443 107.844 86.8654 107.877C84.094 108.124 81.694 107.531 80.2407 106.227C79.351 105.44 78.9274 104.416 78.9959 103.383Z" fill="#1A1B16"/>
<path d="M86.6165 106.256C87.1347 106.199 87.6703 106.059 88.1943 105.884C89.4246 105.447 90.2285 104.26 90.1928 103.017L90.1426 101.583C90.1136 100.925 89.3696 100.493 88.724 100.817C88.0785 101.141 87.3943 101.476 86.7342 101.608C84.6585 102.109 81.0147 101.335 80.9027 103.477C80.8255 105.179 83.0913 106.586 86.6165 106.256Z" fill="white"/>
<path d="M92.42 86.3671C92.2714 87.6002 92.5638 88.5133 93.4979 88.6538C94.432 88.7943 95.3189 87.875 95.5051 86.6315C95.6913 85.388 95.0361 84.3364 94.1116 84.2329C93.1399 84.1028 92.5696 85.134 92.42 86.3671Z" fill="#1A1B16"/>
<path d="M71.7043 82.9162C71.5528 83.9912 71.8249 84.8304 72.6626 84.9178C73.5002 85.0052 74.2664 84.2384 74.4073 83.1265C74.5588 82.0515 74.0097 81.0899 73.1711 81.0025C72.3711 80.9047 71.8558 81.8412 71.7043 82.9162Z" fill="#1A1B16"/>
<path d="M99.5213 78.8056C97.0759 77.7647 94.3268 77.4189 91.6528 77.7879" stroke="#1A1B16" stroke-width="2.66246" stroke-miterlimit="10" stroke-linecap="round" stroke-linejoin="round"/>
<path d="M76.5689 73.9875C74.4748 73.3176 72.2196 73.1119 69.9876 73.4399" stroke="#1A1B16" stroke-width="2.66246" stroke-miterlimit="10" stroke-linecap="round" stroke-linejoin="round"/>
</g>
</g>
<defs>
<clipPath id="clip0_5_175">
<rect width="193" height="188" fill="white" transform="matrix(-1 0 0 1 193 0)"/>
</clipPath>
</defs>
</svg>
